<svg xmlns="http://www.w3.org/2000/svg" viewBox="0 0 300 300" width="300" height="300">
  <defs>
    <linearGradient id="gemGrad1" x1="0%" y1="0%" x2="100%" y2="100%">
      <stop offset="0%" style="stop-color:#FF6B6B;stop-opacity:1"/>
      <stop offset="25%" style="stop-color:#4ECDC4;stop-opacity:1"/>
      <stop offset="50%" style="stop-color:#45B7D1;stop-opacity:1"/>
      <stop offset="75%" style="stop-color:#96CEB4;stop-opacity:1"/>
      <stop offset="100%" style="stop-color:#FFEAA7;stop-opacity:1"/>
    </linearGradient>
    <radialGradient id="gemGrad2" cx="50%" cy="50%" r="50%">
      <stop offset="0%" style="stop-color:#45B7D1;stop-opacity:1"/>
      <stop offset="50%" style="stop-color:#4ECDC4;stop-opacity:1"/>
      <stop offset="100%" style="stop-color:#96CEB4;stop-opacity:1"/>
    </radialGradient>
  </defs>
  <!-- 4-pointed star shape -->
  <path d="M150,10 C160,80 180,120 280,150 C180,180 160,220 150,290 C140,220 120,180 20,150 C120,120 140,80 150,10Z" fill="url(#gemGrad1)"/>
  <!-- Inner highlight -->
  <path d="M150,50 C156,95 168,125 250,150 C168,175 156,205 150,250 C144,205 132,175 50,150 C132,125 144,95 150,50Z" fill="url(#gemGrad2)" opacity="0.5"/>
</svg>