<svg xmlns="http://www.w3.org/2000/svg" viewBox="0 0 300 300" width="300" height="300">
  <!-- Green circle background -->
  <circle cx="140" cy="130" r="120" fill="#25D366"/>
  <!-- White phone bubble -->
  <path d="M140,30 C84,30 40,74 40,130 C40,148 45,165 54,180 L40,230 L92,216 C106,224 122,228 140,228 C196,228 240,184 240,130 C240,74 196,30 140,30Z" fill="#FFFFFF"/>
  <!-- Phone handset -->
  <path d="M108,98 C105,98 98,102 95,106 C90,112 90,123 97,136 C104,149 120,168 144,182 C155,188 163,190 169,190 C177,189 183,184 186,179 C188,176 188,172 187,170 L178,165 C175,163 172,162 170,165 L164,172 C162,174 159,174 157,173 C150,169 137,159 130,149 C126,143 123,137 127,133 L132,127 C134,125 134,122 132,119 L123,103 C121,100 118,98 115,98Z" fill="#25D366"/>
  <!-- API text -->
  <text x="190" y="285" text-anchor="middle" font-family="Arial, Helvetica, sans-serif" font-size="72" font-weight="bold" fill="#4a9e6e" letter-spacing="2">API</text>
</svg>