<svg xmlns="http://www.w3.org/2000/svg" viewBox="0 0 300 300" width="300" height="300">
  <!-- Green circle background -->
  <circle cx="150" cy="150" r="140" fill="#25D366"/>
  <!-- Phone icon -->
  <path d="M150,40 C89,40 40,89 40,150 C40,170 45,189 54,206 L40,260 L96,246 C112,254 130,258 150,258 C211,258 260,209 260,148 C260,89 211,40 150,40Z" fill="#25D366"/>
  <path d="M150,55 C97,55 55,97 55,150 C55,168 60,185 69,200 L57,248 L106,236 C120,244 136,248 150,248 C203,248 245,206 245,150 C245,97 203,55 150,55Z" fill="#FFFFFF"/>
  <path d="M150,70 C105,70 70,105 70,150 C70,167 75,183 84,196 L74,237 L116,227 C129,235 143,240 150,240 C195,240 230,205 230,150 C230,105 195,70 150,70Z" fill="#25D366"/>
  <!-- Phone handset -->
  <path d="M118,108 C115,108 108,112 105,116 C100,122 100,133 107,146 C114,159 130,178 154,192 C165,198 173,200 179,200 C187,199 193,194 196,189 C198,186 198,182 197,180 L188,175 C185,173 182,172 180,175 L174,182 C172,184 169,184 167,183 C160,179 147,169 140,159 C136,153 133,147 137,143 L142,137 C144,135 144,132 142,129 L133,113 C131,110 128,108 125,108Z" fill="#FFFFFF"/>
  <!-- Plus sign -->
  <circle cx="235" cy="65" r="45" fill="#25D366" stroke="#FFFFFF" stroke-width="5"/>
  <rect x="220" y="45" width="30" height="40" rx="3" fill="#FFFFFF"/>
  <rect x="215" y="52" width="40" height="26" rx="3" fill="#FFFFFF"/>
  <line x1="235" y1="45" x2="235" y2="85" stroke="#25D366" stroke-width="8" stroke-linecap="round"/>
  <line x1="215" y1="65" x2="255" y2="65" stroke="#25D366" stroke-width="8" stroke-linecap="round"/>
</svg>